<?xml version="1.0" encoding="UTF-8"?>
<svg width="38px" height="38px" viewBox="0 0 38 38" version="1.1" xmlns="http://www.w3.org/2000/svg" xmlns:xlink="http://www.w3.org/1999/xlink">
    <!-- Generator: Sketch 47.1 (45422) - http://www.bohemiancoding.com/sketch -->
    <title>Creators Page 2</title>
    <desc>Created with Sketch.</desc>
    <defs>
        <rect id="path-1" x="997" y="946" width="299" height="60"></rect>
    </defs>
    <g id="Page-1" stroke="none" stroke-width="1" fill="none" fill-rule="evenodd">
        <g id="Creators-Page-2" transform="translate(-1010.000000, -956.000000)">
            <g id="Rectangle-21-Copy-2">
                <use fill="#FFFFFF" fill-rule="evenodd" xlink:href="#path-1"></use>
                <rect stroke-opacity="0.5" stroke="#E1E1E1" stroke-width="1" x="997.5" y="946.5" width="298" height="59"></rect>
            </g>
            <g id="007-edit-tools" transform="translate(1014.000000, 959.000000)" fill-rule="nonzero">
                <path d="M0.770202727,1.77023239 C1.79615392,0.743255871 3.46027484,0.743255871 4.48622603,1.77023239 L24,21.2838336 L20.2829909,25 L0.770202727,5.48639878 C-0.256734242,4.46040809 -0.256734242,2.79622308 0.770202727,1.77023239 Z" id="Shape" fill="#ED5564"></path>
                <path d="M3.19012524,3.19085432 C3.44460173,2.93638189 3.85630333,2.93638189 4.11077983,3.19085432 L23.8099205,22.8896802 C24.0633598,23.1431765 24.0633598,23.5549325 23.8099205,23.809405 C23.6821637,23.9361226 23.516336,24 23.3495932,24 C23.1827894,24 23.0169007,23.9361226 22.8892049,23.809405 L3.19012524,4.11051804 C2.93662492,3.85604561 2.93662492,3.44435059 3.19012524,3.19085432 Z" id="Shape" fill="#DA4453"></path>
                <path d="M19,24.9495063 C19,30.5555319 27.2775664,31 30.0155572,31 C32.7524975,31 28.9140077,27.6835839 28.9140077,24.9495063 C28.9140077,22.2153669 26.6944694,20 23.9564785,20 C21.2184877,20 19,22.2153669 19,24.9495063 Z" id="Shape" fill="#656D78"></path>
                <path d="M30.0158738,31 C27.2778042,31 19,30.5647023 19,25.0743427 C19,24.3322454 19.170886,23.62877 19.4750816,23 C19.4760705,23 19.8931188,29.9500756 30.9610928,30.1143548 L30.9610928,30.1143548 C31.0971217,30.6619523 30.8983007,31 30.0158738,31 Z" id="Shape" fill="#434A54"></path>
                <path d="M29.864758,1.13455235 C28.3511021,-0.378184118 25.8980274,-0.378184118 24.3843109,1.13455235 L24.3843109,1.13455235 L24.3843109,1.13455235 L0,25.519593 L0,31 L5.4794782,31 L29.864758,6.61489882 C31.378414,5.10125394 31.378414,2.64819723 29.864758,1.13455235 Z" id="Shape" fill="#F6BB42"></path>
                <path d="M29.0956646,7 L29.9444634,6.15106805 C31.3518455,4.7435586 31.3518455,2.46250802 29.9444634,1.05499856 C28.5370814,-0.351666187 26.2562372,-0.351666187 24.8487988,1.05499856 L24.8487988,1.05499856 L24,1.90477522 L29.0956646,7 Z" id="Shape" fill="#EC87C0"></path>
                <path d="M24.139892,4 L4.17779844,23.9611835 L4.17779844,23.9611835 C3.94073385,24.1991603 3.94073385,24.5842252 4.17779844,24.822202 C4.41577591,25.059266 4.80078478,25.059266 5.03876225,24.822202 L25,4.8601627 L24.139892,4 Z" id="Shape" fill="#FFCE54"></path>
                <polygon id="Shape" fill="#FFE5AB" points="0 26 0 31 5 31"></polygon>
                <polygon id="Shape" fill="#E6E9ED" points="25.9999602 13 20 7.00039785 23.9999072 3 30 9.00059678"></polygon>
                <g id="Group" transform="translate(21.000000, 4.000000)" fill="#CCD1D9">
                    <path d="M1.74762617,0.877962617 L0.901457944,0.0317943925 C0.900560748,0.0308971963 0.89882243,0.0300560748 0.897981308,0.028317757 L0.0527102804,0.873588785 C0.0536074766,0.875327103 0.0544485981,0.876224299 0.0561869159,0.877962617 L0.901457944,1.72328972 C1.13534579,1.95717757 1.51379439,1.95717757 1.74762617,1.72328972 C1.9806729,1.49029907 1.9806729,1.11100935 1.74762617,0.877962617 Z" id="Shape"></path>
                    <path d="M4.27659813,5.09842991 L5.12276636,5.94459813 C5.12366355,5.94549533 5.12540187,5.94633645 5.12624299,5.94807477 L5.97157009,5.10280374 C5.9706729,5.10106542 5.96983178,5.10016822 5.96809346,5.09842991 L5.12276636,4.2531028 C4.88893458,4.01921495 4.51048598,4.01921495 4.27659813,4.2531028 C4.0435514,4.48609346 4.0435514,4.86543925 4.27659813,5.09842991 Z" id="Shape"></path>
                </g>
                <polygon id="Shape" fill="#656D78" points="0 28 0 31 3 31"></polygon>
            </g>
        </g>
    </g>
</svg>