<?xml version="1.0" encoding="UTF-8"?>
<svg width="38px" height="38px" viewBox="0 0 38 38" version="1.1" xmlns="http://www.w3.org/2000/svg" xmlns:xlink="http://www.w3.org/1999/xlink">
    <!-- Generator: Sketch 47.1 (45422) - http://www.bohemiancoding.com/sketch -->
    <title>Creators Page 2</title>
    <desc>Created with Sketch.</desc>
    <defs>
        <rect id="path-1" x="997" y="1016" width="299" height="60"></rect>
    </defs>
    <g id="Page-1" stroke="none" stroke-width="1" fill="none" fill-rule="evenodd">
        <g id="Creators-Page-2" transform="translate(-1009.000000, -1027.000000)">
            <g id="Rectangle-21-Copy-3">
                <use fill="#FFFFFF" fill-rule="evenodd" xlink:href="#path-1"></use>
                <rect stroke-opacity="0.5" stroke="#E1E1E1" stroke-width="1" x="997.5" y="1016.5" width="298" height="59"></rect>
            </g>
            <g id="006-browser" transform="translate(1013.000000, 1031.000000)" fill-rule="nonzero">
                <path d="M28.7480315,0 L1.2519685,0 C0.561023622,0 0,0.598130841 0,1.3271028 L0,10 L30,10 L30,1.3271028 C30,0.598130841 29.4389764,0 28.7480315,0 Z" id="Shape" fill="#41596B"></path>
                <path d="M0,10 L0,28.7745665 C0,29.4508671 0.561134082,30 1.252215,30 L28.747785,30 C29.4388659,30 30,29.4508671 30,28.7745665 L30,10 L0,10 Z" id="Shape" fill="#F2F2F2"></path>
                <circle id="Oval" fill="#F2705B" cx="4" cy="5" r="2"></circle>
                <circle id="Oval" fill="#FFD05C" cx="10" cy="5" r="2"></circle>
                <circle id="Oval" fill="#89D6F7" cx="15" cy="5" r="2"></circle>
                <g id="Group" transform="translate(3.000000, 14.000000)" fill="#65C5B8">
                    <polygon id="Shape" points="5.59038462 10.9743523 0.0346153846 5.4857513 5.59038462 0.00284974093 7.43076923 1.82098446 3.72115385 5.4857513 7.43076923 9.15621762"></polygon>
                    <polygon id="Shape" points="18.4096154 10.9743523 16.5692308 9.15621762 20.2788462 5.4857513 16.5692308 1.82098446 18.4096154 0.00284974093 23.9653846 5.4857513"></polygon>
                </g>
                <polygon id="Shape" fill="#4FBFA8" points="13.9067524 28 11 28 16.0932476 14 19 14"></polygon>
                <rect id="Rectangle-path" fill="#CDD5DF" x="0" y="10" width="30" height="1"></rect>
            </g>
        </g>
    </g>
</svg>