<?xml version="1.0" encoding="UTF-8"?>
<svg width="38px" height="38px" viewBox="0 0 38 38" version="1.1" xmlns="http://www.w3.org/2000/svg" xmlns:xlink="http://www.w3.org/1999/xlink">
    <!-- Generator: Sketch 47.1 (45422) - http://www.bohemiancoding.com/sketch -->
    <title>Creators Page 2</title>
    <desc>Created with Sketch.</desc>
    <defs>
        <rect id="path-1" x="997" y="876" width="299" height="60"></rect>
    </defs>
    <g id="Page-1" stroke="none" stroke-width="1" fill="none" fill-rule="evenodd">
        <g id="Creators-Page-2" transform="translate(-1011.000000, -887.000000)">
            <g id="Rectangle-21-Copy">
                <use fill="#FFFFFF" fill-rule="evenodd" xlink:href="#path-1"></use>
                <rect stroke-opacity="0.5" stroke="#E1E1E1" stroke-width="1" x="997.5" y="876.5" width="298" height="59"></rect>
            </g>
            <g id="Group-10" transform="translate(1014.000000, 891.000000)" fill-rule="nonzero">
                <g id="008-rgb">
                    <path d="M15.9869388,12.5454545 C17.6587755,11.1948052 19.8008163,10.4155844 22.1518367,10.4155844 C23.4057143,10.4155844 24.6073469,10.6753247 25.7567347,11.0909091 C25.8089796,10.6753247 25.8612245,10.2077922 25.8612245,9.79220779 C25.8612245,4.38961039 21.4726531,0.025974026 16.0391837,0.025974026 C10.6057143,0.025974026 6.21714286,4.38961039 6.21714286,9.79220779 C6.21714286,10.2597403 6.26938776,10.6753247 6.32163265,11.0909091 C7.41877551,10.6753247 8.62040816,10.4155844 9.92653061,10.4155844 C12.1730612,10.4155844 14.315102,11.2467532 15.9869388,12.5454545 Z" id="Shape" fill="#F4AD31"></path>
                    <path d="M9.82204082,10.4155844 C12.1730612,10.4155844 14.2628571,11.2467532 15.9869388,12.5454545 C17.6587755,11.1948052 19.8008163,10.4155844 22.1518367,10.4155844 C23.4057143,10.4155844 24.6073469,10.6753247 25.7567347,11.0909091 C25.8089796,10.6753247 25.8612245,10.2077922 25.8612245,9.79220779 C25.8612245,4.38961039 21.4726531,0.025974026 16.0391837,0.025974026" id="Shape" fill="#E2821A"></path>
                    <path d="M12.277551,20.1818182 C12.277551,19.7142857 12.3297959,19.2987013 12.3820408,18.8831169 C9.14285714,17.6363636 6.73959184,14.6753247 6.21714286,11.0909091 C2.6122449,12.5454545 0,16.025974 0,20.1818182 C0,25.5844156 4.38857143,29.9480519 9.82204082,29.9480519 C12.1730612,29.9480519 14.2628571,29.1168831 15.9869388,27.8181818 C13.7404082,26 12.277551,23.2467532 12.277551,20.1818182 Z" id="Shape" fill="#D32A0F"></path>
                    <path d="M9.82204082,29.9480519 C12.1730612,29.9480519 14.2628571,29.1168831 15.9869388,27.8181818 C13.7404082,26.0519481 12.277551,23.2987013 12.277551,20.1818182 C12.277551,19.7142857 12.3297959,19.2987013 12.3820408,18.8831169" id="Shape" fill="#B71100"></path>
                    <path d="M25.7044898,11.0909091 C25.2342857,14.6753247 22.8310204,17.5844156 19.5395918,18.8831169 C19.5918367,19.2987013 19.6440816,19.7662338 19.6440816,20.1818182 C19.6440816,23.2467532 18.1812245,26 15.9346939,27.8181818 C17.6065306,29.1688312 19.7485714,29.9480519 22.0995918,29.9480519 C27.5330612,29.9480519 31.9216327,25.5844156 31.9216327,20.1818182 C31.9738776,16.025974 29.3616327,12.5454545 25.7044898,11.0909091 Z" id="Shape" fill="#0878A0"></path>
                    <path d="M15.9869388,27.8181818 C17.6587755,29.1688312 19.8008163,29.9480519 22.1518367,29.9480519 C27.5853061,29.9480519 31.9738776,25.5844156 31.9738776,20.1818182" id="Shape" fill="#0C6C8E"></path>
                    <path d="M15.9869388,12.5454545 C14.0538776,14.0519481 12.7477551,16.2857143 12.3820408,18.8311688 C13.4791837,19.2467532 14.6808163,19.5064935 15.9869388,19.5064935 C17.2408163,19.5064935 18.442449,19.2467532 19.5918367,18.8311688 C19.2261224,16.3376623 17.92,14.1038961 15.9869388,12.5454545 Z" id="Shape" fill="#3D3736"></path>
                    <path d="M15.9869388,19.5584416 C17.2408163,19.5584416 18.442449,19.2987013 19.5918367,18.8831169 C19.2261224,16.3376623 17.92,14.1038961 15.9869388,12.5974026" id="Shape" fill="#000000"></path>
                    <path d="M19.5918367,18.8831169 C22.8310204,17.6363636 25.2342857,14.6753247 25.7567347,11.0909091 C24.6595918,10.6753247 23.4579592,10.4155844 22.1518367,10.4155844 C19.8530612,10.4155844 17.7110204,11.2467532 15.9869388,12.5454545 C17.92,14.1038961 19.2261224,16.3376623 19.5918367,18.8831169 Z" id="Shape" fill="#0CAA7D"></path>
                    <path d="M15.9869388,12.5454545 C14.315102,11.1948052 12.1730612,10.4155844 9.82204082,10.4155844 C8.56816327,10.4155844 7.36653061,10.6753247 6.21714286,11.0909091 C6.68734694,14.6753247 9.09061224,17.5844156 12.3820408,18.8831169 C12.7477551,16.3376623 14.0538776,14.1038961 15.9869388,12.5454545 Z" id="Shape" fill="#720D20"></path>
                    <path d="M19.6963265,20.1818182 C19.6963265,19.7142857 19.6440816,19.2987013 19.5918367,18.8831169 C18.4946939,19.2987013 17.2930612,19.5584416 15.9869388,19.5584416 C14.7330612,19.5584416 13.5314286,19.2987013 12.3820408,18.8831169 C12.3297959,19.2987013 12.277551,19.7662338 12.277551,20.1818182 C12.277551,23.2467532 13.7404082,26 15.9869388,27.8181818 C18.2334694,26 19.6963265,23.2467532 19.6963265,20.1818182 Z" id="Shape" fill="#783089"></path>
                </g>
            </g>
        </g>
    </g>
</svg>